<mxfile host="app.diagrams.net" modified="2024-01-29T08:02:36.400Z" agent="Mozilla/5.0 (Windows NT 10.0; Win64; x64) AppleWebKit/537.36 (KHTML, like Gecko) Chrome/121.0.0.0 Safari/537.36" version="23.0.2" etag="yii6TQNYPRoHRYWjgA6o" type="github">
  <diagram name="第 1 页" id="3GR5ZFJ99SGeGk10Pyea">
    <mxGraphModel>
      <root>
        <mxCell id="0" />
        <mxCell id="1" parent="0" />
      </root>
    </mxGraphModel>
  </diagram>
</mxfile>
